<?xml version="1.0" encoding="utf-8"?>
<svg viewBox="0 0 640 376" xmlns="http://www.w3.org/2000/svg" xmlns:bx="https://boxy-svg.com">
  <defs>
    <style bx:fonts="Quantico">@import url(https://fonts.googleapis.com/css2?family=Quantico%3Aital%2Cwght%400%2C400%3B0%2C700%3B1%2C400%3B1%2C700&amp;display=swap);</style>
  </defs>
  <path style="stroke: rgb(154, 145, 161); fill-rule: nonzero; stroke-width: 4px; fill: none;" d="M 71.875 109.259 L 71.875 38.496 C 71.875 33.996 68.227 30.347 63.727 30.347 L 37.242 30.347 M 30.111 24 C 26.736 24 24 26.736 24 30.111 C 24 33.487 26.736 36.224 30.111 36.224 C 33.487 36.224 36.224 33.487 36.224 30.111 C 36.224 26.736 33.487 24 30.111 24 Z">
    <title>Pin0</title>
  </path>
  <path style="stroke: rgb(154, 145, 161); fill-rule: nonzero; stroke-width: 4px; fill: none;" d="M 98.563 107.816 L 98.563 37.053 M 98.359 24.007 C 94.984 24.007 92.248 26.744 92.248 30.118 C 92.248 33.495 94.984 36.231 98.359 36.231 C 101.735 36.231 104.472 33.495 104.472 30.118 C 104.472 26.744 101.735 24.007 98.359 24.007 Z">
    <title>Pin1</title>
  </path>
  <path style="stroke: rgb(154, 145, 161); fill-rule: nonzero; stroke-width: 4px; fill: none;" d="M 124.029 107.816 L 124.029 37.053 M 123.825 24.007 C 120.449 24.007 117.714 26.744 117.714 30.118 C 117.714 33.495 120.449 36.231 123.825 36.231 C 127.201 36.231 129.938 33.495 129.938 30.118 C 129.938 26.744 127.201 24.007 123.825 24.007 Z">
    <title>Pin2</title>
  </path>
  <path style="stroke: rgb(154, 145, 161); fill-rule: nonzero; stroke-width: 4px; fill: none;" d="M 149.495 107.833 L 149.495 37.07 M 149.291 24 C 145.915 24 143.179 26.736 143.179 30.111 C 143.179 33.487 145.915 36.224 149.291 36.224 C 152.666 36.224 155.403 33.487 155.403 30.111 C 155.403 26.736 152.666 24 149.291 24 Z">
    <title>Pin3</title>
  </path>
  <path d="M 516.337 30.111 C 516.337 33.487 513.601 36.224 510.224 36.224 C 506.849 36.224 504.113 33.487 504.113 30.111 C 504.113 26.736 506.849 24 510.224 24 C 513.601 24 516.337 26.736 516.337 30.111 Z M 503.459 29.704 L 185.648 29.704 C 181.148 29.704 177.5 33.353 177.5 37.854 L 177.5 85.559" style="stroke-width: 4px; stroke: rgb(154, 145, 161); fill: none;">
    <title>Pin4</title>
  </path>
  <path d="M 564.167 285.588 C 564.167 288.965 561.431 291.701 558.055 291.701 C 554.679 291.701 551.944 288.965 551.944 285.588 C 551.944 282.213 554.679 279.477 558.055 279.477 C 561.431 279.477 564.167 282.213 564.167 285.588 Z M 232.096 243.826 L 549.906 243.826 C 554.406 243.826 558.055 247.474 558.055 251.974 L 558.055 278.458" style="stroke-width: 4px; stroke: rgb(154, 145, 161); fill: none;">
    <title>Pin5</title>
  </path>
  <path style="stroke: rgb(154, 145, 161); fill-rule: nonzero; stroke-width: 4px; fill: none;" d="M 89.875 278.634 L 89.875 334.47 C 89.875 338.97 86.227 342.618 81.727 342.618 L 55.242 342.618 M 48.112 348.729 C 44.736 348.729 42 345.995 42 342.618 C 42 339.244 44.736 336.507 48.112 336.507 C 51.487 336.507 54.224 339.244 54.224 342.618 C 54.224 345.995 51.487 348.729 48.112 348.729 Z">
    <title>Pin6</title>
  </path>
  <path d="M 116.013 348.67 C 119.388 348.67 122.124 345.936 122.124 342.559 C 122.124 339.185 119.388 336.448 116.013 336.448 C 112.637 336.448 109.9 339.185 109.9 342.559 C 109.9 345.936 112.637 348.67 116.013 348.67 Z M 115.808 277 L 115.808 335.601" style="stroke-width: 4px; stroke: rgb(154, 145, 161); fill: none;">
    <title>Pin7</title>
  </path>
  <path d="M 141.413 348.67 C 144.788 348.67 147.524 345.936 147.524 342.559 C 147.524 339.185 144.788 336.448 141.413 336.448 C 138.037 336.448 135.3 339.185 135.3 342.559 C 135.3 345.936 138.037 348.67 141.413 348.67 Z M 141.208 277 L 141.208 335.601" style="stroke-width: 4px; stroke: rgb(154, 145, 161); fill: none;">
    <title>Pin8</title>
  </path>
  <path d="M 166.913 348.67 C 170.288 348.67 173.024 345.936 173.024 342.559 C 173.024 339.185 170.288 336.448 166.913 336.448 C 163.537 336.448 160.8 339.185 160.8 342.559 C 160.8 345.936 163.537 348.67 166.913 348.67 Z M 166.708 277 L 166.708 335.601" style="stroke-width: 4px; stroke: rgb(154, 145, 161); fill: none;">
    <title>Pin9</title>
  </path>
  <path d="M 235.164 348.736 C 238.54 348.736 241.275 346.002 241.275 342.625 C 241.275 339.251 238.54 336.514 235.164 336.514 C 231.788 336.514 229.051 339.251 229.051 342.625 C 229.051 346.002 231.788 348.736 235.164 348.736 Z M 193.4 278.957 L 193.4 334.241 C 193.4 338.741 197.049 342.39 201.548 342.39 L 228.034 342.39" style="stroke-width: 4px; stroke: rgb(154, 145, 161); fill: none;">
    <title>PinA</title>
  </path>
  <rect style="stroke: rgb(154, 145, 161); fill-rule: nonzero; fill: none; stroke-width: 8px;" x="56.892" y="102.446" width="175.203" height="175.203" rx="16" ry="16">
    <title>CPU_Bottom</title>
  </rect>
  <rect style="fill-rule: nonzero; fill: rgb(154, 145, 161); stroke-width: 0px;" x="32.445" y="78" width="175.203" height="175.203" rx="16" ry="16">
    <title>CPU_Top</title>
  </rect>
  <text style="fill: rgb(255, 135, 10); font-family: Quantico; font-size: 89.7px; letter-spacing: -3px; white-space: pre;" x="241.263" y="215.817"><title>Name</title>ByteZone</text>
</svg>