<?xml version="1.0" encoding="utf-8"?>
<svg viewBox="0 0 640 640" xmlns="http://www.w3.org/2000/svg">
  <defs/>
  <path style="stroke: rgb(154, 145, 161); fill-rule: nonzero; fill: none; stroke-width: 8px;" d="M 126.88 215.506 L 126.88 109.765 C 126.88 103.04 121.428 97.588 114.703 97.588 L 75.128 97.588 M 77.093 97.237 C 77.093 90.511 71.641 85.06 64.916 85.06 C 58.191 85.06 52.739 90.511 52.739 97.237 C 52.739 103.962 58.191 109.414 64.916 109.414 C 71.641 109.414 77.093 103.962 77.093 97.237 Z">
    <title>Pin0</title>
  </path>
  <path style="stroke: rgb(154, 145, 161); fill-rule: nonzero; fill: none; stroke-width: 8px;" d="M 166.899 108 L 166.899 213.74 M 178.619 97.238 C 178.619 90.512 173.167 85.061 166.442 85.061 C 159.717 85.061 154.265 90.512 154.265 97.238 C 154.265 103.963 159.717 109.415 166.442 109.415 C 173.167 109.415 178.619 103.963 178.619 97.238 Z">
    <title>Pin1</title>
  </path>
  <path style="stroke: rgb(154, 145, 161); fill-rule: nonzero; fill: none; stroke-width: 8px;" d="M 204.952 108 L 204.952 213.74 M 217.129 97.238 C 217.129 90.512 211.677 85.061 204.952 85.061 C 198.227 85.061 192.775 90.512 192.775 97.238 C 192.775 103.963 198.227 109.415 204.952 109.415 C 211.677 109.415 217.129 103.963 217.129 97.238 Z">
    <title>Pin2</title>
  </path>
  <path style="stroke: rgb(154, 145, 161); fill-rule: nonzero; fill: none; stroke-width: 8px;" d="M 242.853 108 L 242.853 213.74 M 254.821 97.177 C 254.821 90.452 249.369 85 242.644 85 C 235.919 85 230.467 90.452 230.467 97.177 C 230.467 103.902 235.919 109.354 242.644 109.354 C 249.369 109.354 254.821 103.902 254.821 97.177 Z">
    <title>Pin3</title>
  </path>
  <path style="stroke: rgb(154, 145, 161); fill-rule: nonzero; fill: none; stroke-width: 8px;" d="M 406.048 96.605 L 289.177 96.605 C 282.453 96.605 277 102.057 277 108.782 L 277 167.255 M 431.685 97.177 C 431.685 103.902 426.233 109.354 419.508 109.354 C 412.783 109.354 407.331 103.902 407.331 97.177 C 407.331 90.452 412.783 85 419.508 85 C 426.233 85 431.685 90.452 431.685 97.177 Z">
    <title>Pin4</title>
  </path>
  <path d="M 518.511 440.132 C 518.511 446.857 513.059 452.309 506.334 452.309 C 499.609 452.309 494.157 446.857 494.157 440.132 C 494.157 433.407 499.609 427.955 506.334 427.955 C 513.059 427.955 518.511 433.407 518.511 440.132 Z M 366.298 377.725 L 494.3 377.725 C 501.024 377.725 506.477 383.177 506.477 389.902 L 506.477 429.477" style="stroke: rgb(154, 145, 161); fill: none; stroke-width: 8px;">
    <title>Pin5</title>
  </path>
  <path style="stroke: rgb(154, 145, 161); fill-rule: nonzero; fill: none; stroke-width: 8px;" d="M 156.245 460.196 L 156.245 519.674 C 156.245 526.399 150.793 531.852 144.068 531.852 L 104.492 531.852 M 104.055 531.268 C 104.055 537.993 98.603 543.445 91.878 543.445 C 85.153 543.445 79.701 537.993 79.701 531.268 C 79.701 524.543 85.153 519.091 91.878 519.091 C 98.603 519.091 104.055 524.543 104.055 531.268 Z">
    <title>Pin6</title>
  </path>
  <path d="M 204.891 531.28 C 204.891 524.555 199.439 519.103 192.714 519.103 C 185.989 519.103 180.537 524.555 180.537 531.28 C 180.537 538.006 185.989 543.457 192.714 543.457 C 199.439 543.457 204.891 538.006 204.891 531.28 Z M 192.775 458.949 L 192.775 520.907" style="stroke: rgb(154, 145, 161); fill: none; stroke-width: 8px;">
    <title>Pin7</title>
  </path>
  <path d="M 242.853 531.279 C 242.853 524.554 237.401 519.102 230.676 519.102 C 223.951 519.102 218.499 524.554 218.499 531.279 C 218.499 538.004 223.951 543.456 230.676 543.456 C 237.401 543.456 242.853 538.004 242.853 531.279 Z M 230.828 458.949 L 230.828 520.907" style="stroke: rgb(154, 145, 161); fill: none; stroke-width: 8px;">
    <title>Pin8</title>
  </path>
  <path d="M 281.054 531.279 C 281.054 524.554 275.602 519.102 268.877 519.102 C 262.152 519.102 256.7 524.554 256.7 531.279 C 256.7 538.004 262.152 543.456 268.877 543.456 C 275.602 543.456 281.054 538.004 281.054 531.279 Z M 269.029 458.949 L 269.029 520.907" style="stroke: rgb(154, 145, 161); fill: none; stroke-width: 8px;">
    <title>Pin9</title>
  </path>
  <path style="stroke: rgb(154, 145, 161); fill-rule: nonzero; fill: none; stroke-width: 8px;" d="M 308.457 457.619 L 308.457 518.751 C 308.457 525.475 313.909 530.928 320.634 530.928 L 360.21 530.928 M 383.041 531.282 C 383.041 524.556 377.589 519.105 370.864 519.105 C 364.139 519.105 358.687 524.556 358.687 531.282 C 358.687 538.007 364.139 543.459 370.864 543.459 C 377.589 543.459 383.041 538.007 383.041 531.282 Z">
    <title>PinA</title>
  </path>
  <rect style="stroke: rgb(154, 145, 161); fill-rule: nonzero; fill: none; stroke-width: 12px;" x="104.491" y="196.867" width="261.806" height="261.806" rx="16" ry="16">
    <title>CPU_Bottom</title>
  </rect>
  <rect style="fill-rule: nonzero; fill: rgb(154, 145, 161); stroke-width: 0px;" x="67.96" y="160.336" width="261.806" height="261.806" rx="16" ry="16">
    <title>CPU_Top</title>
  </rect>
  <path d="M 479.295 280.747 L 466.054 288.357 L 466.054 288.662 L 479.295 296.272 L 479.295 333.409 L 461.64 343.606 L 407 343.606 L 407 237.066 L 461.64 237.066 L 479.295 247.263 L 479.295 280.747 Z M 422.22 295.359 L 422.22 329.908 L 464.075 329.908 L 464.075 295.359 L 422.22 295.359 Z M 422.22 250.764 L 422.22 281.661 L 464.075 281.661 L 464.075 250.764 L 422.22 250.764 Z M 500.631 250.764 L 500.631 237.066 L 569.882 237.066 L 569.882 246.198 L 517.373 329.604 L 517.373 329.908 L 569.882 329.908 L 569.882 343.606 L 497.587 343.606 L 497.587 334.474 L 550.096 251.068 L 550.096 250.764 L 500.631 250.764 Z" style="fill: rgb(255, 135, 10);">
    <title>Initials</title>
  </path>
</svg>