<?xml version="1.0" encoding="utf-8"?>
<svg viewBox="0 0 640 640" xmlns="http://www.w3.org/2000/svg">
  <defs/>
  <path style="stroke: rgb(154, 145, 161); fill-rule: nonzero; stroke-width: 4px; fill: none;" d="M 70.709 280.1 L 70.709 210.631 C 70.709 206.213 67.127 202.631 62.709 202.631 L 36.709 202.631 M 29.709 196.4 C 26.395 196.4 23.709 199.086 23.709 202.4 C 23.709 205.714 26.395 208.4 29.709 208.4 C 33.023 208.4 35.709 205.714 35.709 202.4 C 35.709 199.086 33.023 196.4 29.709 196.4 Z">
    <title>Pin0</title>
  </path>
  <path style="stroke: rgb(154, 145, 161); fill-rule: nonzero; stroke-width: 4px; fill: none;" d="M 96.909 278.683 L 96.909 209.214 M 96.709 196.407 C 93.395 196.407 90.709 199.093 90.709 202.407 C 90.709 205.721 93.395 208.407 96.709 208.407 C 100.023 208.407 102.709 205.721 102.709 202.407 C 102.709 199.093 100.023 196.407 96.709 196.407 Z">
    <title>Pin1</title>
  </path>
  <path style="stroke: rgb(154, 145, 161); fill-rule: nonzero; stroke-width: 4px; fill: none;" d="M 121.909 278.683 L 121.909 209.214 M 121.709 196.407 C 118.395 196.407 115.709 199.093 115.709 202.407 C 115.709 205.721 118.395 208.407 121.709 208.407 C 125.023 208.407 127.709 205.721 127.709 202.407 C 127.709 199.093 125.023 196.407 121.709 196.407 Z">
    <title>Pin2</title>
  </path>
  <path style="stroke: rgb(154, 145, 161); fill-rule: nonzero; stroke-width: 4px; fill: none;" d="M 146.909 278.7 L 146.909 209.231 M 146.709 196.4 C 143.395 196.4 140.709 199.086 140.709 202.4 C 140.709 205.714 143.395 208.4 146.709 208.4 C 150.023 208.4 152.709 205.714 152.709 202.4 C 152.709 199.086 150.023 196.4 146.709 196.4 Z">
    <title>Pin3</title>
  </path>
  <path d="M 507 202.399994 C 507 205.71370249898476 504.31370849898474 208.399994 501 208.399994 C 497.68629150101526 208.399994 495 205.71370249898476 495 202.399994 C 495 199.08628550101523 497.68629150101526 196.399994 501 196.399994 C 504.31370849898474 196.399994 507 199.08628550101523 507 202.399994 Z M 494.358 202 L 182.358 202 C 177.94 202 174.358 205.582 174.358 210 L 174.358 236" style="stroke-width: 4px; stroke: rgb(154, 145, 161); fill: none;">
    <title>Pin4</title>
  </path>
  <path d="M 554 413 C 554 416.31370849898474 551.3137084989847 419 548 419 C 544.6862915010153 419 542 416.31370849898474 542 413 C 542 409.68629150101526 544.6862915010153 407 548 407 C 551.3137084989847 407 554 409.68629150101526 554 413 Z M 228 372 L 540 372 C 544.418 372 548 375.582 548 380 L 548 406" style="stroke-width: 4px; stroke: rgb(154, 145, 161); fill: none;">
    <title>Pin5</title>
  </path>
  <path style="stroke: rgb(154, 145, 161); fill-rule: nonzero; stroke-width: 4px; fill: none;" d="M 88.713 431.724 L 88.713 501.193 C 88.713 505.611 85.131 509.193 80.713 509.193 L 54.713 509.193 M 47.713 515.193 C 44.399 515.193 41.713 512.507 41.713 509.193 C 41.713 505.88 44.399 503.193 47.713 503.193 C 51.026 503.193 53.713 505.88 53.713 509.193 C 53.713 512.507 51.026 515.193 47.713 515.193 Z">
    <title>Pin6</title>
  </path>
  <path d="M 114 515.2 C 117.314 515.2 120 512.514 120 509.2 C 120 505.887 117.314 503.2 114 503.2 C 110.686 503.2 108 505.887 108 509.2 C 108 512.514 110.686 515.2 114 515.2 Z M 113.8 432.9 L 113.8 502.369" style="stroke-width: 4px; stroke: rgb(154, 145, 161); fill: none;">
    <title>Pin7</title>
  </path>
  <path d="M 139 515.193 C 142.314 515.193 145 512.507 145 509.193 C 145 505.88 142.314 503.193 139 503.193 C 135.686 503.193 133 505.88 133 509.193 C 133 512.507 135.686 515.193 139 515.193 Z M 138.8 432.917 L 138.8 502.386" style="stroke-width: 4px; stroke: rgb(154, 145, 161); fill: none;">
    <title>Pin8</title>
  </path>
  <path d="M 164 515.193 C 167.314 515.193 170 512.507 170 509.193 C 170 505.88 167.314 503.193 164 503.193 C 160.686 503.193 158 505.88 158 509.193 C 158 512.507 160.686 515.193 164 515.193 Z M 163.8 432.917 L 163.8 502.386" style="stroke-width: 4px; stroke: rgb(154, 145, 161); fill: none;">
    <title>Pin9</title>
  </path>
  <path d="M 231 515.2 C 234.314 515.2 237 512.514 237 509.2 C 237 505.887 234.314 503.2 231 503.2 C 227.686 503.2 225 505.887 225 509.2 C 225 512.514 227.686 515.2 231 515.2 Z M 190 431.5 L 190 500.969 C 190 505.387 193.582 508.969 198 508.969 L 224 508.969" style="stroke-width: 4px; stroke: rgb(154, 145, 161); fill: none;">
    <title>PinA</title>
  </path>
  <rect style="stroke: rgb(154, 145, 161); fill-rule: nonzero; stroke-width: 8px; fill: none;" x="56" y="258" width="172" height="172" rx="16" ry="16">
    <title>CPU_Bottom</title>
  </rect>
  <rect style="fill-rule: nonzero; fill: rgb(154, 145, 161); stroke-width: 0px;" x="32" y="234" width="172" height="172" rx="16" ry="16">
    <title>CPU_Top</title>
  </rect>
  <path d="M 286.72 308.16 L 279.064 312.56 L 279.064 312.736 L 286.72 317.136 L 286.72 338.608 L 276.512 344.504 L 244.92 344.504 L 244.92 282.904 L 276.512 282.904 L 286.72 288.8 Z M 253.72 316.608 L 253.72 336.584 L 277.92 336.584 L 277.92 316.608 Z M 253.72 290.824 L 253.72 308.688 L 277.92 308.688 L 277.92 290.824 Z M 302.714 362.104 L 310.37 342.48 L 293.386 300.504 L 301.922 300.504 L 314.418 331.832 L 314.594 331.832 L 327.002 300.504 L 335.538 300.504 L 311.074 362.104 Z M 337.813 308.16 L 337.813 300.504 L 345.909 300.504 L 345.909 293.112 L 354.445 288.184 L 354.445 300.504 L 365.005 300.504 L 365.005 308.16 L 354.445 308.16 L 354.445 336.848 L 365.005 336.848 L 365.005 344.504 L 356.117 344.504 L 345.909 338.608 L 345.909 308.16 Z M 409.085 336.848 L 409.085 344.504 L 384.533 344.504 L 374.325 338.608 L 374.325 305.96 L 384.533 300.064 L 398.877 300.064 L 409.085 305.96 L 409.085 325.496 L 382.861 325.496 L 382.861 336.848 Z M 382.861 307.72 L 382.861 317.84 L 400.549 317.84 L 400.549 307.72 Z M 419.282 290.824 L 419.282 282.904 L 459.322 282.904 L 459.322 288.184 L 428.962 336.408 L 428.962 336.584 L 459.322 336.584 L 459.322 344.504 L 417.522 344.504 L 417.522 339.224 L 447.882 291 L 447.882 290.824 Z M 506.036 339.048 L 495.828 344.944 L 478.844 344.944 L 468.636 339.048 L 468.636 305.96 L 478.844 300.064 L 495.828 300.064 L 506.036 305.96 Z M 477.172 307.72 L 477.172 337.288 L 497.5 337.288 L 497.5 307.72 Z M 554.511 305.96 L 554.511 344.504 L 545.975 344.504 L 545.975 307.72 L 525.647 307.72 L 525.647 344.504 L 517.111 344.504 L 517.111 300.064 L 523.535 300.064 L 525.647 303.672 L 531.895 300.064 L 544.303 300.064 Z M 600.345 336.848 L 600.345 344.504 L 575.793 344.504 L 565.585 338.608 L 565.585 305.96 L 575.793 300.064 L 590.137 300.064 L 600.345 305.96 L 600.345 325.496 L 574.121 325.496 L 574.121 336.848 Z M 574.121 307.72 L 574.121 317.84 L 591.809 317.84 L 591.809 307.72 Z" style="fill: rgb(255, 135, 10);">
    <title>Name</title>
  </path>
</svg>