<?xml version="1.0" encoding="utf-8"?>
<svg viewBox="0 0 640 640" xmlns="http://www.w3.org/2000/svg">
  <defs/>
  <path d="M 52 20 L 493.47 20 C 511.143 20 525.47 34.327 525.47 52 L 525.47 493.47 C 525.47 511.143 511.143 525.47 493.47 525.47 L 52 525.47 C 34.327 525.47 20 511.143 20 493.47 L 20 52 C 20 34.327 34.327 20 52 20 Z M 253.496 171.339 L 212.432 147.621 L 85.346 147.621 L 85.346 395.421 L 212.432 395.421 L 253.496 371.703 L 253.496 285.327 L 222.698 267.627 L 222.698 266.919 L 253.496 249.219 Z M 218.096 283.203 L 218.096 363.561 L 120.746 363.561 L 120.746 283.203 Z M 218.096 179.481 L 218.096 251.343 L 120.746 251.343 L 120.746 179.481 Z M 422.171 179.481 L 422.171 180.189 L 300.041 374.181 L 300.041 395.421 L 468.191 395.421 L 468.191 363.561 L 346.061 363.561 L 346.061 362.853 L 468.191 168.861 L 468.191 147.621 L 307.121 147.621 L 307.121 179.481 Z" style="fill-rule: nonzero; fill: rgb(154, 145, 161); stroke-width: 0px;"/>
  <path d="M 510.541 90.53 L 564 90.53 C 581.673 90.53 596 104.857 596 122.53 L 596 564 C 596 581.673 581.673 596 564 596 L 122.53 596 C 104.857 596 90.53 581.673 90.53 564 L 90.53 513.99" style="stroke: rgb(154, 145, 161); fill-rule: nonzero; fill: none; stroke-width: 24px;"/>
</svg>